<svg width="224.4" height="105.65561935435802" viewBox="0 0 349.99999999999994 164.79263268282222"
     className="nav__logo">
  <defs id="SvgjsDefs1193"></defs>
  <g id="SvgjsG1194"
     transform="matrix(2.1639668889744774,0,0,2.1639668889744774,66.80165555127613,-52.798628487302935)"
     fill="#111111">
    <g xmlns="http://www.w3.org/2000/svg">
      <polygon
        points="50,24.399 17.652,53.565 17.652,75.601 32.652,75.601 32.652,60.237 38.014,55.404 38.014,50 41.347,50    41.347,52.398 50,44.597 67.348,60.237 67.348,75.601 82.348,75.601 82.348,53.565  "></polygon>
      <rect x="46.184" y="53.938" width="3.422" height="3.423"></rect>
      <rect x="50.393" y="53.938" width="3.423" height="3.423"></rect>
      <rect x="46.184" y="58.284" width="3.422" height="3.421"></rect>
      <rect x="50.393" y="58.284" width="3.423" height="3.421"></rect>
    </g>
  </g>
  <g id="SvgjsG1195"
     transform="matrix(1.150975054145143,0,0,1.150975054145143,-1.3811692966154279,118.52343353040784)"
     fill="#111111">
    <path
      d="M29.24 12.04 l0 1.04 c-0.88 0 -1.68 0.28 -1.72 1 l0 26.12 l-2.88 0 l-17.76 -20.04 l0 17.96 c0.04 0.72 0.84 1 1.72 1 l0 1.08 l-7.4 0 l0 -1.08 c0.88 0 1.68 -0.28 1.72 -1 l0 -24.04 c-0.04 -0.72 -0.84 -1 -1.72 -1 l0 -1.04 l4.08 0 l18.6 20.56 l0 -18.52 c-0.04 -0.72 -0.84 -1 -1.72 -1 l0 -1.04 l7.08 0 z M54.44500000000001 34.8 l1.36 0 l0 5.4 l-19.92 0 l0 -1.04 c0.92 0 1.76 -0.32 1.72 -1.12 l0 -24.28 c-0.04 -0.8 -0.88 -1.12 -1.72 -1.12 l0 -1.04 l19.84 0 l0 5.48 l-1.36 0 c-0.04 -0.8 -0.88 -2.72 -2.92 -2.72 l-9.52 0 l0 10.16 l8.48 0 c1.28 -0.12 1.84 -0.52 1.88 -1.48 l0.96 0 l0 5.32 l-0.96 0 c-0.04 -0.96 -0.6 -1.36 -1.88 -1.48 l-8.52 0 l0 10.64 l9.64 0 c2.04 0 2.88 -1.92 2.92 -2.72 z M102.25 11.52 l0 1.04 c-0.84 0 -1.92 0.28 -2.12 1.04 l0.04 -0.04 l-7.52 26.64 l-4.68 0 l-6.24 -17.32 l-5.76 17.32 l-5 0 l-7.52 -26.6 l0 0.08 c-0.12 -0.8 -1.12 -1.12 -2 -1.12 l0 -1.04 l7.48 0 l0 1.04 c-0.68 0 -0.96 0.2 -1 0.64 l5.92 21.68 l6.56 -17.92 l3.2 0 l6.88 17.92 l5.48 -21.2 c0.2 -0.8 -0.04 -1.12 -0.92 -1.12 l0 -1.04 l7.2 0 z M100.13 13.600000000000001 l0 0.08 l0 -0.08 z M143.02 38.12 c0.76 0.76 1.4 1.04 2.24 1.04 l0 1.04 l-5.8 0 l-7.44 -10.8 l-4 0 l0 8.64 c0 0.8 0.84 1.12 1.72 1.12 l0 1.04 l-7.8 0 l0 -1.04 c0.88 0 1.72 -0.32 1.72 -1.12 l0 -24.44 c-0.16 -0.6 -0.92 -0.84 -1.68 -0.84 l0 -1.04 l10.56 0 c6.72 0 10.24 3.72 10.24 8.68 s-3.52 8.04 -6.44 8.04 z M132.3 26.880000000000003 c3.36 0.04 5.84 -3.08 5.84 -6.88 c0 -3.92 -3.28 -5.92 -6.08 -5.92 c-3.04 0 -3.92 -0.16 -3.92 1.44 l0 11.32 z M169.465 34.8 l1.36 0 l0 5.4 l-19.92 0 l0 -1.04 c0.92 0 1.76 -0.32 1.72 -1.12 l0 -24.28 c-0.04 -0.8 -0.88 -1.12 -1.72 -1.12 l0 -1.04 l19.84 0 l0 5.48 l-1.36 0 c-0.04 -0.8 -0.88 -2.72 -2.92 -2.72 l-9.52 0 l0 10.16 l8.48 0 c1.28 -0.12 1.84 -0.52 1.88 -1.48 l0.96 0 l0 5.32 l-0.96 0 c-0.04 -0.96 -0.6 -1.36 -1.88 -1.48 l-8.52 0 l0 10.64 l9.64 0 c2.04 0 2.88 -1.92 2.92 -2.72 z M204.43 38.36 c0.28 0.56 1.04 0.8 1.8 0.8 l0 1.04 l-7.72 0 l0 -1.04 c0.8 0 1.08 -0.28 0.96 -0.92 l-2.96 -8.08 l-11.88 0 l-3.12 8.2 c-0.08 0.56 0.2 0.8 0.96 0.8 l0 1.04 l-6.4 0 l0 -1.04 c0.72 0 1.48 -0.2 1.8 -0.72 l0.12 -0.32 l0 -0.08 l0 0.04 l10 -25.28 l6 -1.96 l10.32 27.28 l0 -0.08 l0 0.08 z M185.03000000000003 28.240000000000002 l10.96 0 l-5.28 -14.36 z M229.35500000000002 34.68 l1.36 0 l0 5.52 l-19.24 0 l0 -1.04 c0.84 0 1.68 -0.32 1.72 -1.12 l0 -24.28 c0.04 -0.8 -0.8 -1.12 -1.72 -1.12 l0 -1.04 l7.72 0 l0 1.04 c-0.88 0 -1.64 0.28 -1.72 0.96 l0.04 23.8 l8.92 0 c2.04 0 2.88 -1.92 2.92 -2.72 z M217.47500000000002 13.64 l0 0.12 l0 -0.12 z M244.24000000000004 12.68 c-0.88 0 -1.72 0.32 -1.72 1.12 l0 24.24 c0 0.8 0.84 1.12 1.72 1.12 l0 1.04 l-7.88 0 l0 -1.04 c0.88 0 1.72 -0.32 1.72 -1.12 l0 -24.24 c0 -0.8 -0.84 -1.12 -1.72 -1.12 l0 -1.04 l7.88 0 l0 1.04 z M251.48500000000004 11.64 l21.64 0 l0 5.48 l-1.36 0 c-0.08 -0.8 -0.92 -2.72 -2.92 -2.72 l-4.24 0 l0 23.64 c-0.04 0.8 0.8 1.12 1.72 1.12 l0 1.04 l-8.16 0 l0 -1.04 c0.92 0 1.76 -0.32 1.72 -1.12 l0 -23.64 l-4.12 0 c-2 0 -2.84 1.92 -2.92 2.72 l-1.36 0 l0 -5.48 z M305.2900000000001 11.559999999999999 l0 1.4 c-0.44 0 -1.56 -0.12 -2.36 0.68 l-8.92 13.4 l0 11 c-0.04 0.8 0.8 1.12 1.72 1.12 l0 1.04 l-8.24 0 l0 -1.04 c0.84 0 1.6 -0.28 1.72 -0.92 l0.16 -11.2 l-9.52 -13.28 c-0.04 -0.04 -0.04 -0.12 -0.08 -0.16 l-0.08 -0.12 c-0.52 -0.64 -1.28 -0.6 -1.72 -0.6 l0 -1.44 l8.32 0 l0 1.44 c-0.48 0 -1.24 0 -1 0.8 l6.64 9.6 l6.56 -9.52 c0.52 -0.84 -0.64 -0.8 -1.12 -0.8 l0 -1.44 z M289.21000000000004 38.16 l0 -0.12 l0 0.12 z"></path>
  </g>
</svg>
